<?xml version="1.0" encoding="UTF-8"?>
<svg width="1440px" height="58px" viewBox="0 0 1440 58" version="1.1" xmlns="http://www.w3.org/2000/svg" xmlns:xlink="http://www.w3.org/1999/xlink">
    <!-- Generator: Sketch 63.1 (92452) - https://sketch.com -->
    <title>rainbow</title>
    <desc>Created with Sketch.</desc>
    <defs>
        <polygon id="path-1" points="0 0.496 95.4214636 0.496 95.4214636 48.212 0 48.212"></polygon>
        <polygon id="path-3" points="0.547142572 0.496 52.8523071 0.496 52.8523071 22.1406 0.547142572 22.1406"></polygon>
    </defs>
    <g id="Symbols" stroke="none" stroke-width="1" fill="none" fill-rule="evenodd">
        <g id="header">
            <g id="Group-6" transform="translate(0.000000, -1.000000)">
                <g id="rainbow">
                    <path d="M532.506401,11.0823 L532.517886,11.0823 C532.515015,11.0813 532.510708,11.0813 532.506401,11.0813 L532.506401,11.0823 Z" id="Fill-1" fill="#27A9E0"></path>
                    <g id="Group-5" transform="translate(0.000000, 0.504200)">
                        <mask id="mask-2" fill="white">
                            <use xlink:href="#path-1"></use>
                        </mask>
                        <g id="Clip-4"></g>
                        <path d="M63.9783529,0.496 L-0.000430707876,0.496 L-0.000430707876,48.212 C22.9031785,48.093 62.0344247,43.589 95.4214636,32.243 C82.3681436,21.173 72.0699182,10.549 63.9783529,0.496" id="Fill-3" fill="#0047BA" mask="url(#mask-2)"></path>
                    </g>
                    <g id="Group-8" transform="translate(0.000000, 0.504200)" fill="#6FCFEB">
                        <path d="M120.027948,51.2304 C126.780012,50.0584 133.730201,48.7074 140.865595,47.1354 C165.496343,41.7134 192.261966,33.7644 220.15748,22.2454 C237.515007,15.0784 252.996084,7.7664 266.811757,0.4964 L147.627709,0.4964 C141.474329,7.2984 134.30735,13.6054 126.129643,18.4954 C117.084778,23.9024 106.57407,28.4534 95.4216072,32.2434 C62.0345683,43.5884 22.903322,48.0924 -0.000287138584,48.2114 L-0.000287138584,54.9904 L2.84525623,55.5954 C2.84525623,55.5954 50.7141296,63.2554 120.027948,51.2304" id="Fill-6"></path>
                    </g>
                    <path d="M95.4220379,32.7473 C62.034999,44.0933 22.902317,48.5973 0.000143569292,48.7163 C22.902317,48.5973 62.034999,44.0933 95.4220379,32.7473" id="Fill-9" fill="#70CEE9"></path>
                    <path d="M126.129643,18.9993 C134.30735,14.1093 141.474329,7.8033 147.627709,1.0003 L63.9784965,1.0003 C72.0700618,11.0533 82.3682871,21.6773 95.4216072,32.7473 C106.57407,28.9573 117.084778,24.4063 126.129643,18.9993" id="Fill-11" fill="#00B2E3"></path>
                    <path d="M126.129643,18.9993 C117.084778,24.4063 106.57407,28.9573 95.4216072,32.7473 C106.57407,28.9573 117.084778,24.4063 126.129643,18.9993 C134.30735,14.1093 141.474329,7.8033 147.627709,1.0003 C141.474329,7.8033 134.30735,14.1093 126.129643,18.9993" id="Fill-13" fill="#00B1E1"></path>
                    <path d="M354.930568,1.0002 C358.831346,1.9242 362.76658,2.7842 366.754935,3.5682 C365.330728,2.7282 363.8735,1.8582 362.429192,1.0002 L354.930568,1.0002 Z" id="Fill-15" fill="#F27F8A"></path>
                    <path d="M532.664901,1.0002 L362.429049,1.0002 C363.873356,1.8582 365.330584,2.7282 366.754792,3.5682 C384.988092,7.1542 422.343386,17.0862 453.586935,18.2952 C484.830485,19.5042 533.068331,4.6652 532.664901,1.0002" id="Fill-17" fill="#F93549"></path>
                    <path d="M1000.40849,1.0002 C1000.04813,1.4402 999.657619,1.8652 999.320231,2.3192 C994.648487,8.6072 991.53734,14.0252 989.523063,18.6902 C1017.85646,14.7202 1056.22903,12.8212 1093,11.5102 C1137.64458,9.9205003 1200.13303,42.1251436 1277.5625,44.3206251 C1298.66725,44.9190418 1320.25977,38.4914062 1334.00609,27.9252 C1330.1369,26.0632 1326.2835,24.0852 1322.46887,21.9722 C1310.38177,15.2742 1300.41662,8.1632 1292.18292,1.0002 L1000.40849,1.0002 Z" id="Fill-19" fill="#3DAE2B"></path>
                    <path d="M705.662109,1.0002 C695.275567,12.427515 697.671238,20.774779 712.849121,26.0419922 C728.799172,31.5771724 798.626059,40.041794 821.812738,41.3082 C844.999417,42.574606 860.943984,41.3882 878.404881,36.8332 C887.131023,34.5582 904.502907,31.3962 916.635948,22.0202 C890.178999,20.8122 859.837065,17.7332 835.49202,11.4022 C822.892379,8.1262 812.518062,4.8022 804.221192,1.0002 L705.662109,1.0002 Z" id="Combined-Shape" fill="#FFDC00"></path>
                    <g id="Group-25" transform="translate(569.862413, 0.504200)" fill="#F18A00">
                        <path d="M171.431641,0.4956 L80.9887298,0.4956 C80.9887298,0.4956 54.1561875,0.4956 0.491102863,0.4956 C80.2857987,15.1929333 129.546736,24.0352667 148.273914,27.0226 C154.562249,24.3936 160.326556,20.9176 164.156985,16.5126 C165.749168,14.6826 169.694453,8.6036 171.431641,0.4956 Z" id="Fill-23"></path>
                    </g>
                    <path d="M1314.3941,1.0002 L1292.18249,1.0002 C1300.41763,8.1632 1310.38134,15.2742 1322.46843,21.9722 C1326.28307,24.0852 1330.13647,26.0632 1334.00566,27.9252 C1335.89791,26.5672 1337.69252,25.1312 1339.38951,23.6202 C1328.46676,16.9982 1320.34504,9.2782 1314.3941,1.0002" id="Fill-28" fill="#6CCA98"></path>
                    <path d="M1339.38966,23.6204 C1339.39683,23.6244 1339.40401,23.6294 1339.41119,23.6344 C1374.55839,44.9274 1412.01849,46.3214 1439.5881,42.8824 L1439.5881,1.0004 L1356.59787,1.0004 C1352.34391,9.1694 1346.75476,17.0614 1339.38966,23.6204" id="Fill-30" fill="#008EAA"></path>
                    <path d="M1314.3941,1.0002 C1320.34504,9.2782 1328.46676,16.9982 1339.38951,23.6202 C1346.75462,17.0622 1352.3452,9.1692 1356.59773,1.0002 L1314.3941,1.0002 Z" id="Fill-32" fill="#00C4B3"></path>
                    <path d="M956.668092,1.0002 L929.440175,1.0002 C928.038939,10.2962 923.081492,17.0382 916.63523,22.0202 C928.133695,22.5442 938.885599,22.7152 948.104183,22.6462 L948.104183,22.6452 C949.779637,15.9522 952.480175,8.6202 956.668092,1.0002" id="Fill-34" fill="#FFFF3B"></path>
                    <path d="M804.221192,1.0002 C812.518062,4.8022 822.892379,8.1262 835.49202,11.4022 C859.837065,17.7332 890.178999,20.8122 916.635948,22.0202 C923.082209,17.0382 928.038221,10.2962 929.440893,1.0002 L804.221192,1.0002 Z" id="Fill-40" fill="#FFFF3B"></path>
                    <g id="Group-44" transform="translate(947.557328, 0.504200)">
                        <mask id="mask-4" fill="white">
                            <use xlink:href="#path-3"></use>
                        </mask>
                        <g id="Clip-43"></g>
                        <path d="M0.547142572,22.1406 C1.10275573,22.1366 1.66554736,22.1336 2.21111067,22.1276 C9.39101097,22.0496 17.8271426,21.2806 27.2582094,20.1326 C31.9256471,19.5656 36.8342812,18.9066 41.9668833,18.1866 C43.9797248,13.5216 47.0908714,8.1036 51.7626162,1.8156 C52.100004,1.3616 52.4905125,0.9366 52.8523071,0.4956 L9.11105085,0.4956 C4.9231346,8.1166 2.22259621,15.4486 0.547142572,22.1406" id="Fill-42" fill="#6CCA98" mask="url(#mask-4)"></path>
                    </g>
                    <path d="M956.668092,1.0002 C952.480175,8.6202 949.779637,15.9522 948.104183,22.6452 C949.779637,15.9522 952.480175,8.6202 956.668092,1.0002" id="Fill-45" fill="#6FC496"></path>
                </g>
            </g>
        </g>
    </g>
</svg>